<?xml version="1.0" standalone="no"?>
<!DOCTYPE svg PUBLIC "-//W3C//DTD SVG 20010904//EN"
 "http://www.w3.org/TR/2001/REC-SVG-20010904/DTD/svg10.dtd">
<svg version="1.0" xmlns="http://www.w3.org/2000/svg"
 width="700.000000pt" height="700.000000pt" viewBox="0 0 700.000000 700.000000"
 preserveAspectRatio="xMidYMid meet">
<metadata>
Created by potrace 1.14, written by Peter Selinger 2001-2017
</metadata>
<g transform="translate(0.000000,700.000000) scale(0.100000,-0.100000)"
fill="#000000" stroke="none">
<path d="M877 6123 c-4 -3 -7 -102 -7 -220 l0 -213 2630 0 2630 0 -2 218 -3
217 -2621 3 c-1441 1 -2624 -1 -2627 -5z"/>
<path d="M4735 4804 c-429 -62 -739 -263 -891 -579 -59 -121 -83 -223 -90
-375 -22 -464 210 -797 667 -958 47 -17 238 -65 425 -107 186 -43 366 -86 400
-96 72 -22 168 -82 208 -130 64 -76 95 -207 76 -324 -28 -177 -148 -294 -367
-357 -107 -31 -389 -33 -498 -4 -208 56 -341 190 -363 363 l-7 58 -296 3 -296
2 4 -52 c30 -380 249 -682 602 -829 292 -122 709 -141 1046 -49 312 84 566
290 685 553 92 205 113 491 50 712 -77 274 -293 477 -622 586 -51 17 -244 64
-428 105 -369 82 -408 93 -493 137 -155 81 -234 261 -198 449 32 163 135 269
326 334 103 35 308 45 423 20 205 -43 345 -184 375 -375 l11 -71 293 0 293 0
0 38 c0 62 -28 213 -53 287 -116 340 -366 551 -762 641 -68 15 -447 28 -520
18z"/>
<path d="M870 3060 l0 -1690 295 0 295 0 0 630 0 630 362 -2 361 -3 282 -625
281 -625 323 -3 c257 -2 322 0 318 10 -2 7 -145 318 -316 691 -171 372 -311
679 -311 681 0 3 33 21 73 42 200 102 333 233 422 418 122 251 139 587 45 869
-113 337 -375 549 -790 640 -91 20 -130 21 -867 24 l-773 4 0 -1691z m1464
1145 c139 -29 258 -103 321 -199 53 -79 76 -156 82 -276 12 -229 -75 -404
-245 -493 -131 -69 -140 -70 -609 -74 l-423 -4 0 530 0 531 403 0 c314 0 417
-4 471 -15z"/>
</g>
</svg>
